<?xml version="1.0" encoding="UTF-8" standalone="no"?> <svg xmlns="http://www.w3.org/2000/svg" viewBox="0 0 47.56 47.2"><defs><style>.cls-1{fill:none;stroke:#000;stroke-linecap:round;stroke-linejoin:round;stroke-width:2px;}</style></defs><title>Asset 6</title><g id="Layer_2" data-name="Layer 2"><g id="Layer_2-2" data-name="Layer 2"><path class="cls-1" d="M5.54,17.7h7.6a1.56,1.56,0,0,1,1.56,1.56v4.65a0,0,0,0,1,0,0H4a0,0,0,0,1,0,0V19.26A1.56,1.56,0,0,1,5.54,17.7Z" transform="translate(17.45 -0.51) rotate(45)"/><path class="cls-1" d="M3.35,19.21s-7.83,6.63,5.09,19.55"/><path class="cls-1" d="M10.94,26.79s-3.95,2.65,1.43,8"/><path class="cls-1" d="M21,34.76H31.76a0,0,0,0,1,0,0v4.65A1.56,1.56,0,0,1,30.2,41h-7.6A1.56,1.56,0,0,1,21,39.41V34.76A0,0,0,0,1,21,34.76Z" transform="translate(18.29 83.3) rotate(-135)"/><path class="cls-1" d="M28,43.85s-6.63,7.83-19.55-5.09"/><path class="cls-1" d="M20.41,36.27s-2.65,3.94-8-1.44"/><path class="cls-1" d="M30.81,1C22.15,1,15.57,6.76,15.57,13.87a9.55,9.55,0,0,0,4,8.2h0a11.62,11.62,0,0,1-.29,6.05,1,1,0,0,0,1.3,1.24l7.89-2.8a17.56,17.56,0,0,0,2.42.19c8.67,0,15.64-5.77,15.64-12.88S39.48,1,30.81,1Z"/><path class="cls-1" d="M28.34,26.56a17.61,17.61,0,0,1-5.06-1.82"/><circle cx="24.39" cy="14.32" r="1.76"/><circle cx="31.3" cy="14.32" r="1.76"/><circle cx="38.22" cy="14.32" r="1.76"/></g></g></svg>